<?xml version="1.0" encoding="UTF-8"?>
<!-- Generated by Pixelmator Pro 3.3.2 -->
<svg width="511" height="335" viewBox="0 0 511 335" xmlns="http://www.w3.org/2000/svg" xmlns:xlink="http://www.w3.org/1999/xlink">
    <path id="Path" fill="#ffe15a" stroke="none" d="M 473.700012 334.75 L 38.299999 334.75 C 17.200001 334.75 0 317.649994 0 296.450012 L 0 37.649994 C 0 16.450012 17.200001 -0.649994 38.299999 -0.649994 L 473.600006 -0.649994 C 494.799988 -0.649994 511.899994 16.549988 511.899994 37.649994 L 511.899994 296.450012 C 512 317.649994 494.799988 334.75 473.700012 334.75 Z"/>
    <path id="path1" fill="#464655" stroke="none" d="M 38.299999 -0.649994 C 17.200001 -0.649994 0 16.450012 0 37.649994 L 0 296.450012 C 0 317.649994 17.200001 334.75 38.299999 334.75 L 170.600006 334.75 L 170.600006 -0.649994 L 38.299999 -0.649994 Z"/>
    <path id="path2" fill="#ff4b55" stroke="none" d="M 473.700012 -0.649994 L 341.299988 -0.649994 L 341.299988 -0.649994 L 341.299988 334.75 L 341.299988 334.75 L 473.600006 334.75 C 494.799988 334.75 511.899994 317.550018 511.899994 296.450012 L 511.899994 37.649994 C 512 16.450012 494.799988 -0.649994 473.700012 -0.649994 Z"/>
    <g id="Group"/>
    <g id="g1"/>
    <g id="g2"/>
    <g id="g3"/>
    <g id="g4"/>
    <g id="g5"/>
    <g id="g6"/>
    <g id="g7"/>
    <g id="g8"/>
    <g id="g9"/>
    <g id="g10"/>
    <g id="g11"/>
    <g id="g12"/>
    <g id="g13"/>
    <g id="g14"/>
</svg>
