<?xml version="1.0" encoding="UTF-8"?>
<!-- Generated by Pixelmator Pro 3.3.2 -->
<svg width="512" height="335" viewBox="0 0 512 335" xmlns="http://www.w3.org/2000/svg" xmlns:xlink="http://www.w3.org/1999/xlink">
    <path id="Path" fill="#41479b" stroke="none" d="M 13.7 9.251007 C 5.326 16.286011 0 26.82901 0 38.621002 L 0 297.380005 C 0 309.17099 5.326 319.714996 13.7 326.748993 L 256 168 L 13.7 9.251007 Z"/>
    <path id="path1" fill="#ff4b55" stroke="none" d="M 13.7 326.748993 C 20.365 332.347992 28.958 335.723999 38.344002 335.723999 L 473.653992 335.723999 C 494.830994 335.723999 511.998993 318.557007 511.998993 297.378998 L 511.998993 168 L 256 168 L 13.7 326.748993 Z"/>
    <path id="path2" fill="#f5f5f5" stroke="none" d="M 473.654999 0.276001 L 38.345001 0.276001 C 28.959 0.276001 20.365 3.653992 13.701 9.251007 L 256 168 L 512 168 L 512 38.621002 C 512 17.442993 494.833008 0.276001 473.654999 0.276001 Z"/>
    <g id="Group"/>
    <g id="g1"/>
    <g id="g2"/>
    <g id="g3"/>
    <g id="g4"/>
    <g id="g5"/>
    <g id="g6"/>
    <g id="g7"/>
    <g id="g8"/>
    <g id="g9"/>
    <g id="g10"/>
    <g id="g11"/>
    <g id="g12"/>
    <g id="g13"/>
    <g id="g14"/>
</svg>
