<?xml version="1.0" encoding="UTF-8"?>
<!-- Generated by Pixelmator Pro 3.3.2 -->
<svg width="512" height="335" viewBox="0 0 512 335" xmlns="http://www.w3.org/2000/svg" xmlns:xlink="http://www.w3.org/1999/xlink">
    <g id="Group">
        <path id="Path" fill="#c8414b" stroke="none" d="M 0 297.378998 C 0 318.556 17.167 335.723999 38.345001 335.723999 L 473.654999 335.723999 C 494.832001 335.723999 512 318.557007 512 297.378998 L 512 265.102997 L 0 265.102997 L 0 297.378998 Z"/>
        <path id="path1" fill="#c8414b" stroke="none" d="M 473.654999 0.276001 L 38.345001 0.276001 C 17.167 0.276001 0 17.442993 0 38.621002 L 0 70.897003 L 512 70.897003 L 512 38.621002 C 512 17.442993 494.833008 0.276001 473.654999 0.276001 Z"/>
    </g>
    <path id="path2" fill="#ffd250" stroke="none" d="M 0 70.899994 L 512 70.899994 L 512 265.109985 L 0 265.109985 Z"/>
    <path id="path3" fill="#c8414b" stroke="none" d="M 216.276001 168 L 223.761002 134.319 C 224.451004 131.21698 222.089996 128.274994 218.912003 128.274994 L 213.639999 128.274994 C 210.462997 128.274994 208.102997 131.218018 208.791 134.319 L 216.276001 168 Z"/>
    <path id="path4" fill="#f5f5f5" stroke="none" d="M 207.449997 150.339996 L 225.104996 150.339996 L 225.104996 225.369995 L 207.449997 225.369995 Z"/>
    <path id="path5" fill="#fab446" stroke="none" d="M 203.029999 141.52002 L 229.513 141.52002 L 229.513 150.348022 L 203.029999 150.348022 Z"/>
    <g id="g1">
        <path id="path6" fill="#c8414b" stroke="none" d="M 185.380005 168 L 229.520004 168 L 229.520004 176.828003 L 185.380005 176.828003 Z"/>
        <path id="path7" fill="#c8414b" stroke="none" d="M 229.516998 203.309998 L 203.033997 194.483002 L 203.033997 185.654999 L 229.516998 194.483002 Z"/>
        <path id="path8" fill="#c8414b" stroke="none" d="M 83.862 168 L 91.347 134.319 C 92.037003 131.21698 89.676003 128.274994 86.498001 128.274994 L 81.225998 128.274994 C 78.049004 128.274994 75.689003 131.218018 76.376999 134.319 L 83.862 168 Z"/>
    </g>
    <path id="path9" fill="#f5f5f5" stroke="none" d="M 114.759003 141.516998 C 109.884003 141.516998 105.931 145.470001 105.931 150.345001 L 105.931 207.723999 C 105.931 218.449005 115.941002 238.621002 150.069 238.621002 C 184.197006 238.621002 194.207001 218.450012 194.207001 207.723999 L 194.207001 150.345001 C 194.207001 145.470001 190.253998 141.516998 185.378998 141.516998 L 114.759003 141.516998 Z"/>
    <g id="g2">
        <path id="path10" fill="#c8414b" stroke="none" d="M 150.069 185.654999 L 105.931 185.654999 L 105.931 150.345001 C 105.931 145.470001 109.884003 141.516998 114.759003 141.516998 L 150.069 141.516998 L 150.069 185.654999 Z"/>
        <path id="path11" fill="#c8414b" stroke="none" d="M 150.069 185.654999 L 194.207001 185.654999 L 194.207001 207.723999 C 194.207001 219.912994 184.326996 229.792999 172.138 229.792999 L 172.138 229.792999 C 159.949005 229.792999 150.069 219.912994 150.069 207.723999 L 150.069 185.654999 Z"/>
    </g>
    <path id="path12" fill="#fab446" stroke="none" d="M 105.931 185.654999 L 150.069 185.654999 L 150.069 207.723999 C 150.069 219.912994 140.188995 229.792999 128 229.792999 L 128 229.792999 C 115.810997 229.792999 105.931 219.912994 105.931 207.723999 L 105.931 185.654999 Z"/>
    <g id="g3">
        <path id="path13" fill="#c8414b" stroke="none" d="M 141.240997 225.279999 L 141.240997 185.654999 L 132.412994 185.654999 L 132.412994 229.347992 C 135.697006 228.682007 138.664001 227.227997 141.240997 225.279999 Z"/>
        <path id="path14" fill="#c8414b" stroke="none" d="M 123.585999 229.347992 L 123.585999 185.654999 L 114.758003 185.654999 L 114.758003 225.279999 C 117.335999 227.227997 120.303001 228.682007 123.585999 229.347992 Z"/>
    </g>
    <path id="path15" fill="#ffb441" stroke="none" d="M 114.760002 168 L 141.242996 168 L 141.242996 176.828003 L 114.760002 176.828003 Z"/>
    <g id="g4">
        <path id="path16" fill="#fab446" stroke="none" d="M 114.760002 150.339996 L 141.242996 150.339996 L 141.242996 159.167999 L 114.760002 159.167999 Z"/>
        <path id="path17" fill="#fab446" stroke="none" d="M 119.169998 155.589996 L 136.824997 155.589996 L 136.824997 171.582001 L 119.169998 171.582001 Z"/>
    </g>
    <path id="path18" fill="#f5f5f5" stroke="none" d="M 75.029999 150.339996 L 92.684998 150.339996 L 92.684998 225.369995 L 75.029999 225.369995 Z"/>
    <g id="g5">
        <path id="path19" fill="#fab446" stroke="none" d="M 70.620003 220.970001 L 97.102997 220.970001 L 97.102997 229.798004 L 70.620003 229.798004 Z"/>
        <path id="path20" fill="#fab446" stroke="none" d="M 70.620003 141.52002 L 97.102997 141.52002 L 97.102997 150.348022 L 70.620003 150.348022 Z"/>
    </g>
    <path id="path21" fill="#5064aa" stroke="none" d="M 66.209999 229.790009 L 101.519997 229.790009 L 101.519997 238.618011 L 66.209999 238.618011 Z"/>
    <path id="path22" fill="#fab446" stroke="none" d="M 207.449997 220.970001 L 233.932999 220.970001 L 233.932999 229.798004 L 207.449997 229.798004 Z"/>
    <path id="path23" fill="#5064aa" stroke="none" d="M 198.619995 229.790009 L 233.929993 229.790009 L 233.929993 238.618011 L 198.619995 238.618011 Z"/>
    <path id="path24" fill="#fab446" stroke="none" d="M 123.589996 132.690002 L 176.556 132.690002 L 176.556 141.518005 L 123.589996 141.518005 Z"/>
    <path id="path25" fill="#ffb441" stroke="none" d="M 145.660004 106.210022 L 154.488007 106.210022 L 154.488007 132.692993 L 145.660004 132.692993 Z"/>
    <g id="g6">
        <path id="path26" fill="#f5f5f5" stroke="none" d="M 141.240997 119.447998 C 133.938995 119.447998 128 113.507996 128 106.207001 C 128 98.904999 133.940002 92.966003 141.240997 92.966003 C 148.542999 92.966003 154.481995 98.906006 154.481995 106.207001 C 154.483002 113.507996 148.542999 119.447998 141.240997 119.447998 Z M 141.240997 101.792999 C 138.806 101.792999 136.826996 103.770996 136.826996 106.207001 C 136.826996 108.641998 138.804993 110.621002 141.240997 110.621002 C 143.677002 110.621002 145.654999 108.643005 145.654999 106.207001 C 145.654999 103.772003 143.677002 101.792999 141.240997 101.792999 Z"/>
        <path id="path27" fill="#f5f5f5" stroke="none" d="M 158.897003 119.447998 C 151.595001 119.447998 145.656006 113.507996 145.656006 106.207001 C 145.656006 98.904999 151.595993 92.966003 158.897003 92.966003 C 166.199005 92.966003 172.138 98.906006 172.138 106.207001 C 172.138 113.507996 166.197998 119.447998 158.897003 119.447998 Z M 158.897003 101.792999 C 156.462006 101.792999 154.483002 103.770996 154.483002 106.207001 C 154.483002 108.641998 156.460999 110.621002 158.897003 110.621002 C 161.332001 110.621002 163.311005 108.643005 163.311005 106.207001 C 163.309998 103.772003 161.332001 101.792999 158.897003 101.792999 Z"/>
        <path id="path28" fill="#f5f5f5" stroke="none" d="M 176.552002 128.276001 C 169.25 128.276001 163.311005 122.335999 163.311005 115.035004 C 163.311005 107.733002 169.251007 101.794006 176.552002 101.794006 C 183.854004 101.794006 189.792999 107.734009 189.792999 115.035004 C 189.792999 122.335999 183.852997 128.276001 176.552002 128.276001 Z M 176.552002 110.621002 C 174.117004 110.621002 172.138 112.598999 172.138 115.035004 C 172.138 117.470001 174.115997 119.449005 176.552002 119.449005 C 178.987 119.449005 180.966003 117.471008 180.966003 115.035004 C 180.966003 112.598999 178.987 110.621002 176.552002 110.621002 Z"/>
        <path id="path29" fill="#f5f5f5" stroke="none" d="M 123.585999 128.276001 C 116.283997 128.276001 110.345001 122.335999 110.345001 115.035004 C 110.345001 107.733002 116.285004 101.794006 123.585999 101.794006 C 130.888 101.794006 136.826996 107.734009 136.826996 115.035004 C 136.828003 122.335999 130.888 128.276001 123.585999 128.276001 Z M 123.585999 110.621002 C 121.151001 110.621002 119.171997 112.598999 119.171997 115.035004 C 119.171997 117.470001 121.150002 119.449005 123.585999 119.449005 C 126.022003 119.449005 128 117.470001 128 115.033997 C 128 112.598999 126.022003 110.621002 123.585999 110.621002 Z"/>
    </g>
    <path id="path30" fill="#fab446" stroke="none" d="M 176.552002 203.309998 L 176.552002 207.723999 C 176.552002 210.15799 174.572006 212.138 172.138 212.138 C 169.703995 212.138 167.723999 210.15799 167.723999 207.723999 L 167.723999 203.309998 L 176.552002 203.309998 M 185.378998 194.483002 L 158.895996 194.483002 L 158.895996 207.723999 C 158.895996 215.026001 164.835999 220.964996 172.136993 220.964996 C 179.438995 220.964996 185.378006 215.024994 185.378006 207.723999 L 185.378006 194.483002 L 185.378998 194.483002 Z"/>
    <path id="path31" fill="#ffa0d2" stroke="none" d="M 172.138 176.828003 L 172.138 176.828003 C 167.263 176.828003 163.309998 172.875 163.309998 168 L 163.309998 159.171997 C 163.309998 154.296997 167.263 150.343994 172.138 150.343994 L 172.138 150.343994 C 177.013 150.343994 180.966003 154.296997 180.966003 159.171997 L 180.966003 168 C 180.966003 172.875 177.013 176.828003 172.138 176.828003 Z"/>
    <path id="path32" fill="#5064aa" stroke="none" d="M 163.311005 185.649994 C 163.311005 192.962799 157.382797 198.890991 150.070007 198.890991 C 142.757202 198.890991 136.828995 192.962799 136.828995 185.649994 C 136.828995 178.337189 142.757202 172.408997 150.070007 172.408997 C 157.382797 172.408997 163.311005 178.337189 163.311005 185.649994 Z"/>
    <path id="path33" fill="#fab446" stroke="none" d="M 145.660004 88.549988 L 154.488007 88.549988 L 154.488007 115.03302 L 145.660004 115.03302 Z"/>
    <path id="path34" fill="#c8414b" stroke="none" d="M 123.585999 132.690002 L 114.758003 123.862 L 119.929001 118.690979 C 127.921997 110.697998 138.764008 106.207001 150.069 106.207001 L 150.069 106.207001 C 161.373993 106.207001 172.214996 110.697998 180.209 118.690979 L 185.380005 123.862 L 176.552002 132.690002 L 123.585999 132.690002 Z"/>
    <g id="g7">
        <path id="path35" fill="#ffd250" stroke="none" d="M 154.483994 123.859985 C 154.483994 126.297791 152.507782 128.273987 150.070007 128.273987 C 147.632217 128.273987 145.656006 126.297791 145.656006 123.859985 C 145.656006 121.422211 147.632217 119.445984 150.070007 119.445984 C 152.507782 119.445984 154.483994 121.422211 154.483994 123.859985 Z"/>
        <path id="path36" fill="#ffd250" stroke="none" d="M 136.824005 123.859985 C 136.824005 126.297791 134.847778 128.273987 132.410004 128.273987 C 129.972214 128.273987 127.996002 126.297791 127.996002 123.859985 C 127.996002 121.422211 129.972214 119.445984 132.410004 119.445984 C 134.847778 119.445984 136.824005 121.422211 136.824005 123.859985 Z"/>
        <path id="path37" fill="#ffd250" stroke="none" d="M 172.134003 123.859985 C 172.134003 126.297791 170.157791 128.273987 167.720001 128.273987 C 165.282211 128.273987 163.306 126.297791 163.306 123.859985 C 163.306 121.422211 165.282211 119.445984 167.720001 119.445984 C 170.157791 119.445984 172.134003 121.422211 172.134003 123.859985 Z"/>
    </g>
    <g id="g8">
        <path id="path38" fill="#c8414b" stroke="none" d="M 70.620003 168 L 114.760002 168 L 114.760002 176.828003 L 70.620003 176.828003 Z"/>
        <path id="path39" fill="#c8414b" stroke="none" d="M 70.621002 203.309998 L 97.102997 194.483002 L 97.102997 185.654999 L 70.621002 194.483002 Z"/>
    </g>
    <g id="g9"/>
    <g id="g10"/>
    <g id="g11"/>
    <g id="g12"/>
    <g id="g13"/>
    <g id="g14"/>
    <g id="g15"/>
    <g id="g16"/>
    <g id="g17"/>
    <g id="g18"/>
    <g id="g19"/>
    <g id="g20"/>
    <g id="g21"/>
    <g id="g22"/>
    <g id="g23"/>
</svg>
