<?xml version="1.0" encoding="UTF-8"?>
<!-- Generated by Pixelmator Pro 3.3.2 -->
<svg width="512" height="335" viewBox="0 0 512 335" xmlns="http://www.w3.org/2000/svg" xmlns:xlink="http://www.w3.org/1999/xlink">
    <path id="Path" fill="#f5f5f5" stroke="none" d="M 512 37.299988 C 511.399994 16.600006 494.5 0 473.700012 0 L 38.299999 0 C 17.200001 0.100006 0 17.200012 0 38.399994 L 0 297.200012 C 0 297.600006 0 297.899994 0 298.300018 L 0 298.300018 C 0.1 303.5 1.3 308.399994 3.3 312.800018 L 3.3 312.800018 C 3.5 313.399994 3.8 313.899994 4.1 314.399994 L 4.1 314.399994 C 4.4 314.899994 4.6 315.399994 4.9 316 C 4.9 316 4.9 316 4.9 316.100006 C 5.2 316.600006 5.5 317.100006 5.8 317.600006 C 5.8 317.600006 5.8 317.700012 5.9 317.700012 C 6.2 318.200012 6.5 318.600006 6.8 319.100006 L 6.9 319.200012 C 7.2 319.700012 7.5 320.100006 7.9 320.5 C 7.9 320.600006 8 320.600006 8 320.700012 C 8.3 321.100006 8.7 321.5 9 321.899994 C 9.1 322 9.1 322 9.2 322.100006 C 9.5 322.5 9.9 322.899994 10.2 323.300018 C 10.3 323.399994 10.3 323.399994 10.4 323.5 C 10.7 323.899994 11.1 324.200012 11.5 324.600006 C 11.6 324.700012 11.7 324.800018 11.7 324.800018 C 12.1 325.100006 12.4 325.5 12.8 325.800018 C 12.9 325.899994 13 326 13.1 326.100006 C 13.5 326.399994 13.8 326.700012 14.2 327 C 14.3 327.100006 14.4 327.200012 14.6 327.300018 C 15 327.600006 15.3 327.899994 15.7 328.100006 C 15.8 328.200012 16 328.300018 16.1 328.399994 C 16.5 328.700012 16.799999 328.899994 17.200001 329.100006 C 17.4 329.200012 17.5 329.300018 17.700001 329.399994 C 18.1 329.600006 18.4 329.899994 18.799999 330.100006 C 19 330.200012 19.200001 330.300018 19.299999 330.399994 C 19.6 330.600006 20 330.800018 20.299999 331 C 20.5 331.100006 20.700001 331.200012 20.9 331.300018 C 21.200001 331.5 21.6 331.700012 21.9 331.800018 C 22.1 331.899994 22.299999 332 22.6 332.100006 C 22.9 332.300018 23.299999 332.399994 23.6 332.600006 C 23.799999 332.700012 24.1 332.800018 24.299999 332.899994 C 24.6 333 25 333.200012 25.299999 333.300018 C 25.6 333.399994 25.799999 333.5 26.1 333.600006 C 26.4 333.700012 26.700001 333.800018 27.1 333.899994 C 27.4 334 27.700001 334.100006 28 334.100006 C 28.299999 334.200012 28.6 334.300018 28.9 334.399994 C 29.200001 334.5 29.5 334.5 29.799999 334.600006 C 30.1 334.700012 30.4 334.700012 30.700001 334.800018 C 31 334.899994 31.4 334.899994 31.700001 335 C 32 335.100006 32.299999 335.100006 32.599998 335.200012 C 33 335.300018 33.299999 335.300018 33.700001 335.300018 C 34 335.300018 34.200001 335.399994 34.5 335.399994 C 34.900002 335.399994 35.299999 335.5 35.799999 335.5 C 36 335.5 36.200001 335.5 36.5 335.600006 C 37.099998 335.600006 37.799999 335.600006 38.5 335.600006 L 473.799988 335.600006 C 474.5 335.600006 475.100006 335.600006 475.799988 335.600006 C 476 335.600006 476.200012 335.600006 476.5 335.5 C 476.899994 335.5 477.299988 335.399994 477.799988 335.399994 C 478.100006 335.399994 478.299988 335.300018 478.600006 335.300018 C 479 335.300018 479.299988 335.200012 479.700012 335.200012 C 480 335.200012 480.299988 335.100006 480.600006 335 C 480.899994 334.899994 481.299988 334.899994 481.600006 334.800018 C 481.899994 334.700012 482.200012 334.700012 482.5 334.600006 C 482.799988 334.5 483.100006 334.5 483.399994 334.399994 C 483.700012 334.300018 484 334.200012 484.299988 334.100006 C 484.600006 334 484.899994 333.899994 485.200012 333.899994 C 485.5 333.800018 485.799988 333.700012 486.200012 333.600006 C 486.5 333.5 486.700012 333.399994 487 333.300018 C 487.299988 333.200012 487.700012 333 488 332.899994 C 488.200012 332.800018 488.5 332.700012 488.700012 332.600006 C 489 332.5 489.399994 332.300018 489.700012 332.100006 C 489.899994 332 490.100006 331.899994 490.399994 331.800018 C 490.700012 331.600006 491.100006 331.5 491.399994 331.300018 C 491.600006 331.200012 491.799988 331.100006 492 331 C 492.399994 330.800018 492.700012 330.600006 493 330.399994 C 493.200012 330.300018 493.399994 330.200012 493.5 330.100006 C 493.899994 329.899994 494.200012 329.700012 494.600006 329.399994 C 494.799988 329.300018 494.899994 329.200012 495.100006 329.100006 C 495.5 328.899994 495.799988 328.600006 496.200012 328.399994 C 496.299988 328.300018 496.5 328.200012 496.600006 328.100006 C 497 327.800018 497.299988 327.600006 497.700012 327.300018 C 497.799988 327.200012 497.899994 327.100006 498.100006 327 C 498.5 326.700012 498.799988 326.399994 499.200012 326.100006 C 499.299988 326 499.399994 325.899994 499.5 325.800018 C 499.899994 325.5 500.200012 325.100006 500.600006 324.800018 C 500.700012 324.700012 500.799988 324.600006 500.899994 324.600006 C 501.299988 324.200012 501.600006 323.899994 502 323.5 C 502.100006 323.399994 502.100006 323.399994 502.200012 323.300018 C 502.600006 322.899994 502.899994 322.5 503.200012 322.100006 C 503.299988 322 503.299988 322 503.399994 321.899994 C 503.700012 321.5 504.100006 321.100006 504.399994 320.700012 C 504.399994 320.600006 504.5 320.600006 504.5 320.5 C 504.799988 320.100006 505.200012 319.600006 505.5 319.200012 L 505.600006 319.100006 C 505.899994 318.600006 506.200012 318.200012 506.5 317.700012 C 506.5 317.700012 506.5 317.600006 506.600006 317.600006 C 506.899994 317.100006 507.200012 316.600006 507.5 316.100006 C 507.5 316.100006 507.5 316.100006 507.5 316 C 507.799988 315.5 508.100006 315 508.299988 314.399994 L 508.299988 314.399994 C 508.600006 313.899994 508.799988 313.300018 509.100006 312.800018 L 509.100006 312.800018 C 511.100006 308.300018 512.299988 303.399994 512.400024 298.300018 L 512.400024 298.300018 C 512.400024 297.899994 512.400024 297.600006 512.400024 297.200012 L 512.400024 38.399994 C 512 38.100006 512 37.700012 512 37.299988 Z"/>
    <path id="path1" fill="#41479b" stroke="none" d="M 0 223.700012 L 512 223.700012 L 512 261 L 512 261 L 0 261 L 0 261 L 0 223.700012 Z M 3.3 312.800018 L 3.3 312.800018 C 3.5 313.399994 3.8 313.899994 4.1 314.399994 L 4.1 314.399994 C 4.4 314.899994 4.6 315.399994 4.9 316 C 4.9 316 4.9 316 4.9 316.100006 C 5.2 316.600006 5.5 317.100006 5.8 317.600006 C 5.8 317.600006 5.8 317.700012 5.9 317.700012 C 6.2 318.200012 6.5 318.600006 6.8 319.100006 L 6.9 319.200012 C 7.2 319.700012 7.5 320.100006 7.9 320.5 C 7.9 320.600006 8 320.600006 8 320.700012 C 8.3 321.100006 8.7 321.5 9 321.899994 C 9.1 322 9.1 322 9.2 322.100006 C 9.5 322.5 9.9 322.899994 10.2 323.300018 C 10.3 323.399994 10.3 323.399994 10.4 323.5 C 10.7 323.899994 11.1 324.200012 11.5 324.600006 C 11.6 324.700012 11.7 324.800018 11.7 324.800018 C 12.1 325.100006 12.4 325.5 12.8 325.800018 C 12.9 325.899994 13 326 13.1 326.100006 C 13.5 326.399994 13.8 326.700012 14.2 327 C 14.3 327.100006 14.4 327.200012 14.6 327.300018 C 15 327.600006 15.3 327.899994 15.7 328.100006 C 15.8 328.200012 16 328.300018 16.1 328.399994 C 16.5 328.700012 16.799999 328.899994 17.200001 329.100006 C 17.4 329.200012 17.5 329.300018 17.700001 329.399994 C 18.1 329.600006 18.4 329.899994 18.799999 330.100006 C 19 330.200012 19.200001 330.300018 19.299999 330.399994 C 19.6 330.600006 20 330.800018 20.299999 331 C 20.5 331.100006 20.700001 331.200012 20.9 331.300018 C 21.200001 331.5 21.6 331.700012 21.9 331.800018 C 22.1 331.899994 22.299999 332 22.6 332.100006 C 22.9 332.300018 23.299999 332.399994 23.6 332.600006 C 23.799999 332.700012 24.1 332.800018 24.299999 332.899994 C 24.6 333 25 333.200012 25.299999 333.300018 C 25.6 333.399994 25.799999 333.5 26.1 333.600006 C 26.4 333.700012 26.700001 333.800018 27.1 333.899994 C 27.4 334 27.700001 334.100006 28 334.100006 C 28.299999 334.200012 28.6 334.300018 28.9 334.399994 C 29.200001 334.5 29.5 334.5 29.799999 334.600006 C 30.1 334.700012 30.4 334.700012 30.700001 334.800018 C 31 334.899994 31.4 334.899994 31.700001 335 C 32 335.100006 32.299999 335.100006 32.599998 335.200012 C 33 335.300018 33.299999 335.300018 33.700001 335.300018 C 34 335.300018 34.200001 335.399994 34.5 335.399994 C 34.900002 335.399994 35.299999 335.5 35.799999 335.5 C 36 335.5 36.200001 335.5 36.5 335.600006 C 37.099998 335.600006 37.799999 335.600006 38.5 335.600006 L 473.799988 335.600006 C 474.5 335.600006 475.100006 335.600006 475.799988 335.600006 C 476 335.600006 476.200012 335.600006 476.5 335.5 C 476.899994 335.5 477.299988 335.399994 477.799988 335.399994 C 478.100006 335.399994 478.299988 335.300018 478.600006 335.300018 C 479 335.300018 479.299988 335.200012 479.700012 335.200012 C 480 335.200012 480.299988 335.100006 480.600006 335 C 480.899994 334.899994 481.299988 334.899994 481.600006 334.800018 C 481.899994 334.700012 482.200012 334.700012 482.5 334.600006 C 482.799988 334.5 483.100006 334.5 483.399994 334.399994 C 483.700012 334.300018 484 334.200012 484.299988 334.100006 C 484.600006 334 484.899994 333.899994 485.200012 333.899994 C 485.5 333.800018 485.799988 333.700012 486.200012 333.600006 C 486.5 333.5 486.700012 333.399994 487 333.300018 C 487.299988 333.200012 487.700012 333 488 332.899994 C 488.200012 332.800018 488.5 332.700012 488.700012 332.600006 C 489 332.5 489.399994 332.300018 489.700012 332.100006 C 489.899994 332 490.100006 331.899994 490.399994 331.800018 C 490.700012 331.600006 491.100006 331.5 491.399994 331.300018 C 491.600006 331.200012 491.799988 331.100006 492 331 C 492.399994 330.800018 492.700012 330.600006 493 330.399994 C 493.200012 330.300018 493.399994 330.200012 493.5 330.100006 C 493.899994 329.899994 494.200012 329.700012 494.600006 329.399994 C 494.799988 329.300018 494.899994 329.200012 495.100006 329.100006 C 495.5 328.899994 495.799988 328.600006 496.200012 328.399994 C 496.299988 328.300018 496.5 328.200012 496.600006 328.100006 C 497 327.800018 497.299988 327.600006 497.700012 327.300018 C 497.799988 327.200012 497.899994 327.100006 498.100006 327 C 498.5 326.700012 498.799988 326.399994 499.200012 326.100006 C 499.299988 326 499.399994 325.899994 499.5 325.800018 C 499.899994 325.5 500.200012 325.100006 500.600006 324.800018 C 500.700012 324.700012 500.799988 324.600006 500.899994 324.600006 C 501.299988 324.200012 501.600006 323.899994 502 323.5 C 502.100006 323.399994 502.100006 323.399994 502.200012 323.300018 C 502.600006 322.899994 502.899994 322.5 503.200012 322.100006 C 503.299988 322 503.299988 322 503.399994 321.899994 C 503.700012 321.5 504.100006 321.100006 504.399994 320.700012 C 504.399994 320.600006 504.5 320.600006 504.5 320.5 C 504.799988 320.100006 505.200012 319.600006 505.5 319.200012 L 505.600006 319.100006 C 505.899994 318.600006 506.200012 318.200012 506.5 317.700012 C 506.5 317.700012 506.5 317.600006 506.600006 317.600006 C 506.899994 317.100006 507.200012 316.600006 507.5 316.100006 C 507.5 316.100006 507.5 316.100006 507.5 316 C 507.799988 315.5 508.100006 315 508.299988 314.399994 L 508.299988 314.399994 C 508.600006 313.899994 508.799988 313.300018 509.100006 312.800018 L 509.100006 312.800018 C 511.100006 308.300018 512.299988 303.399994 512.400024 298.300018 L 0 298.300018 C 0.2 303.399994 1.3 308.300018 3.3 312.800018 Z M 176.600006 74.600006 L 176.600006 111.899994 L 107 111.899994 L 107 186.399994 L 512 186.399994 L 512 149.100006 L 176.600006 149.100006 L 176.600006 149.100006 L 176.600006 111.799988 L 512 111.799988 L 512 111.799988 L 512 74.5 L 176.600006 74.5 L 176.600006 74.600006 Z M 69.599998 111.899994 L 0 111.899994 L 0 111.899994 L 0 149.200012 L 0 186.5 L 69.599998 186.5 L 69.599998 111.899994 Z M 512 37.299988 C 511.399994 16.600006 494.5 0 473.700012 0 L 106.900002 0 L 106.900002 74.5 L 176.5 74.5 L 176.5 37.200012 L 512 37.200012 L 512 37.299988 Z M 69.599998 0.100006 L 38.299999 0.100006 C 17.200001 0.100006 0 17.200012 0 38.399994 L 0 74.600006 L 69.599998 74.600006 L 69.599998 0.100006 Z"/>
    <g id="Group"/>
    <g id="g1"/>
    <g id="g2"/>
    <g id="g3"/>
    <g id="g4"/>
    <g id="g5"/>
    <g id="g6"/>
    <g id="g7"/>
    <g id="g8"/>
    <g id="g9"/>
    <g id="g10"/>
    <g id="g11"/>
    <g id="g12"/>
    <g id="g13"/>
    <g id="g14"/>
</svg>
