<?xml version="1.0" encoding="UTF-8"?>
<!-- Generated by Pixelmator Pro 3.3.2 -->
<svg width="512" height="335" viewBox="0 0 512 335" xmlns="http://www.w3.org/2000/svg" xmlns:xlink="http://www.w3.org/1999/xlink">
    <path id="Path" fill="#41479b" stroke="none" d="M 0 297.380005 C 0 318.556 17.167 335.725006 38.345001 335.725006 L 473.656006 335.725006 C 494.821014 335.725006 511.980011 318.576996 512 297.417999 L 512 223.908997 L 0 223.908997 L 0 297.380005 Z"/>
    <path id="path1" fill="#ff4b55" stroke="none" d="M 473.656006 0.274994 L 38.345001 0.274994 C 17.167 0.274994 0 17.442993 0 38.619995 L 0 112.091003 L 512 112.091003 L 512 38.582001 C 511.980011 17.424011 494.821014 0.274994 473.656006 0.274994 Z"/>
    <path id="path2" fill="#f5f5f5" stroke="none" d="M 0 112.088989 L 512 112.088989 L 512 223.898987 L 0 223.898987 Z"/>
    <g id="Group">
        <path id="path3" fill="#ff4b55" stroke="none" d="M 194.210007 115.028992 L 218.927002 115.028992 L 218.927002 143.278992 L 194.210007 143.278992 Z"/>
        <path id="path4" fill="#ff4b55" stroke="none" d="M 243.639999 115.028992 L 268.356995 115.028992 L 268.356995 143.278992 L 243.639999 143.278992 Z"/>
        <path id="path5" fill="#ff4b55" stroke="none" d="M 218.929993 143.278992 L 243.647003 143.278992 L 243.647003 171.528992 L 218.929993 171.528992 Z"/>
        <path id="path6" fill="#ff4b55" stroke="none" d="M 293.079987 115.028992 L 317.796997 115.028992 L 317.796997 143.278992 L 293.079987 143.278992 Z"/>
        <path id="path7" fill="#ff4b55" stroke="none" d="M 268.359985 143.278992 L 293.076996 143.278992 L 293.076996 171.528992 L 268.359985 171.528992 Z"/>
    </g>
    <g id="g1">
        <path id="path8" fill="#f5f5f5" stroke="none" d="M 218.929993 115.028992 L 243.647003 115.028992 L 243.647003 143.278992 L 218.929993 143.278992 Z"/>
        <path id="path9" fill="#f5f5f5" stroke="none" d="M 268.359985 115.028992 L 293.076996 115.028992 L 293.076996 143.278992 L 268.359985 143.278992 Z"/>
        <path id="path10" fill="#f5f5f5" stroke="none" d="M 194.210007 143.278992 L 218.927002 143.278992 L 218.927002 171.528992 L 194.210007 171.528992 Z"/>
        <path id="path11" fill="#f5f5f5" stroke="none" d="M 243.639999 143.278992 L 268.356995 143.278992 L 268.356995 171.528992 L 243.639999 171.528992 Z"/>
        <path id="path12" fill="#f5f5f5" stroke="none" d="M 293.079987 143.278992 L 317.796997 143.278992 L 317.796997 171.528992 L 293.079987 171.528992 Z"/>
    </g>
    <g id="g2">
        <path id="path13" fill="#ff4b55" stroke="none" d="M 243.639999 171.528992 L 268.356995 171.528992 L 268.356995 199.778992 L 243.639999 199.778992 Z"/>
        <path id="path14" fill="#ff4b55" stroke="none" d="M 218.929993 199.778992 L 243.647003 199.778992 L 243.647003 228.028992 L 218.929993 228.028992 Z"/>
        <path id="path15" fill="#ff4b55" stroke="none" d="M 268.359985 199.778992 L 293.076996 199.778992 L 293.076996 228.028992 L 268.359985 228.028992 Z"/>
    </g>
    <g id="g3">
        <path id="path16" fill="#f5f5f5" stroke="none" d="M 218.929993 171.528992 L 243.647003 171.528992 L 243.647003 199.778992 L 218.929993 199.778992 Z"/>
        <path id="path17" fill="#f5f5f5" stroke="none" d="M 268.359985 171.528992 L 293.076996 171.528992 L 293.076996 199.778992 L 268.359985 199.778992 Z"/>
        <path id="path18" fill="#f5f5f5" stroke="none" d="M 243.639999 199.778992 L 268.356995 199.778992 L 268.356995 228.028992 L 243.639999 228.028992 Z"/>
    </g>
    <g id="g4">
        <path id="path19" fill="#ff4b55" stroke="none" d="M 317.792999 115.035004 L 317.792999 194.483002 C 317.792999 228.610992 290.127014 256.276001 256 256.276001 C 221.873001 256.276001 194.207001 228.609985 194.207001 194.483002 L 194.207001 115.035004 L 317.792999 115.035004 M 322.205994 110.619995 L 317.791992 110.619995 L 194.205994 110.619995 L 189.792007 110.619995 L 189.792007 115.033997 L 189.792007 194.481995 C 189.792007 230.989014 219.492004 260.688995 255.998993 260.688995 C 292.506012 260.688995 322.205994 230.988007 322.205994 194.481995 L 322.205994 115.033997 L 322.205994 110.619995 L 322.205994 110.619995 Z"/>
        <path id="path20" fill="#ff4b55" stroke="none" d="M 218.923996 199.778992 L 218.923996 171.529999 L 194.207001 171.529999 L 194.207001 194.483002 C 194.207001 196.272003 194.324997 198.028992 194.473999 199.779999 L 218.923996 199.778992 L 218.923996 199.778992 Z"/>
    </g>
    <g id="g5">
        <path id="path21" fill="#f5f5f5" stroke="none" d="M 317.526001 199.778992 L 293.075989 199.778992 L 293.075989 228.027008 L 307.850006 228.027008 C 313.210999 219.757996 316.644012 210.140015 317.526001 199.778992 Z"/>
        <path id="path22" fill="#f5f5f5" stroke="none" d="M 204.149002 228.028015 L 218.923004 228.028015 L 218.923004 199.779999 L 194.473007 199.779999 C 195.354996 210.140015 198.787994 219.757996 204.149002 228.028015 Z"/>
    </g>
    <g id="g6">
        <path id="path23" fill="#ff4b55" stroke="none" d="M 293.075012 199.778992 L 317.524994 199.778992 C 317.674011 198.029999 317.791992 196.270996 317.791992 194.481995 L 317.791992 171.529999 L 293.075012 171.529999 L 293.075012 199.778992 Z"/>
        <path id="path24" fill="#ff4b55" stroke="none" d="M 218.923996 243.833008 L 218.923996 228.028015 L 204.149994 228.028015 C 208.106995 234.132996 213.121994 239.46701 218.923996 243.833008 Z"/>
        <path id="path25" fill="#ff4b55" stroke="none" d="M 307.848999 228.028015 L 293.075012 228.028015 L 293.075012 243.834015 C 298.876007 239.46701 303.890015 234.132996 307.848999 228.028015 Z"/>
    </g>
    <g id="g7">
        <path id="path26" fill="#f5f5f5" stroke="none" d="M 218.923996 243.833008 C 226.119003 249.247986 234.490997 253.178009 243.641006 255.035004 L 243.641006 228.028015 L 218.923996 228.028015 L 218.923996 243.833008 Z"/>
        <path id="path27" fill="#f5f5f5" stroke="none" d="M 268.358002 255.033997 C 277.507996 253.177002 285.881012 249.246002 293.075012 243.832001 L 293.075012 228.027008 L 268.358002 228.027008 L 268.358002 255.033997 Z"/>
    </g>
    <path id="path28" fill="#ff4b55" stroke="none" d="M 268.358002 228.028015 L 243.641006 228.028015 L 243.641006 255.036011 C 247.634003 255.846985 251.766998 256.277008 256 256.277008 C 260.233002 256.277008 264.36499 255.846985 268.359009 255.036011 L 268.359009 228.028015 L 268.358002 228.028015 Z"/>
    <g id="g8">
        <path id="path29" fill="#4173cd" stroke="none" d="M 211.270004 68.289978 C 205.891998 67.458008 200.389999 66.858002 194.781006 66.510986 C 190.442993 70.082001 186.307999 73.804993 182.382996 77.661011 C 186.324997 87.175995 190.266006 96.690979 194.205994 106.205994 C 202.119003 102.929016 210.227005 100.306 218.453003 98.338989 C 216.059006 88.324005 213.664001 78.307007 211.270004 68.289978 Z"/>
        <path id="path30" fill="#4173cd" stroke="none" d="M 271.002014 63.604004 C 266.169006 61.158997 261.165009 58.89801 255.998993 56.838989 C 250.834 58.898987 245.828995 61.160004 240.996002 63.604004 C 241.798996 73.871002 242.602997 84.138 243.406006 94.406982 C 251.787994 93.75 260.209991 93.75 268.59201 94.406982 C 269.394989 84.139008 270.199005 73.872009 271.002014 63.604004 Z"/>
        <path id="path31" fill="#4173cd" stroke="none" d="M 329.615997 77.661011 C 325.69101 73.806 321.554993 70.083008 317.217987 66.510986 C 311.609009 66.856995 306.106995 67.458008 300.729004 68.289978 C 298.334015 78.307007 295.940002 88.322998 293.545013 98.338989 C 301.770996 100.306 309.878998 102.927979 317.791992 106.205994 C 321.734009 96.690002 325.675995 87.174988 329.615997 77.661011 Z"/>
    </g>
    <g id="g9">
        <path id="path32" fill="#41479b" stroke="none" d="M 240.996002 63.604004 C 235.841995 61.940979 230.539993 60.485992 225.102005 59.257996 C 220.304001 62.098999 215.690994 65.115997 211.270004 68.291016 C 213.664001 78.307983 216.059006 88.324005 218.453003 98.339996 C 226.679001 96.372986 235.022003 95.062988 243.404999 94.406982 C 242.602005 84.139008 241.798996 73.872009 240.996002 63.604004 Z"/>
        <path id="path33" fill="#41479b" stroke="none" d="M 300.729004 68.289978 C 296.307007 65.11499 291.694 62.096985 286.897003 59.257019 C 281.459015 60.484985 276.156006 61.942017 271.002991 63.602997 C 270.200012 73.869995 269.395996 84.136993 268.592987 94.406006 C 276.976013 95.061005 285.319 96.372009 293.545013 98.338989 C 295.940002 88.324005 298.334015 78.307007 300.729004 68.289978 Z"/>
    </g>
    <g id="g10">
        <path id="path34" fill="#ff4b55" stroke="none" d="M 241.960007 75.924988 C 232.615005 76.654999 223.313995 78.115997 214.143005 80.309998 C 213.664001 78.307007 213.184998 76.302979 212.705994 74.299011 C 222.190994 72.03302 231.811005 70.520996 241.477005 69.764008 C 241.639008 71.817993 241.798996 73.871002 241.960007 75.924988 Z"/>
        <path id="path35" fill="#ff4b55" stroke="none" d="M 242.925003 88.244995 C 234.222 88.925995 225.559006 90.286987 217.018005 92.328979 C 216.537994 90.325989 216.059998 88.322021 215.580994 86.320007 C 224.436005 84.201996 233.419006 82.791016 242.442993 82.085999 C 242.602005 84.136993 242.764008 86.192993 242.925003 88.244995 Z"/>
    </g>
    <path id="path36" fill="#ffe15a" stroke="none" d="M 285.325989 90.320007 C 283.17099 89.937012 281.01001 89.596008 278.843994 89.298004 C 275.282013 88.806 272.628998 85.781982 272.937988 82.382996 L 272.937988 82.382996 C 273.246002 78.984985 276.651001 76.52002 280.528015 77.056 C 282.852997 77.376007 285.174011 77.740997 287.487 78.153015 C 291.346008 78.835022 293.843994 82.234985 293.091003 85.559021 L 293.091003 85.559021 C 292.341003 88.890991 288.872986 90.945007 285.325989 90.320007 Z"/>
    <path id="path37" fill="#ff4b55" stroke="none" d="M 320.157013 100.497009 C 311.941986 97.095001 303.520996 94.372009 294.981995 92.328979 C 295.462006 90.325989 295.940002 88.322021 296.419006 86.320007 C 305.273987 88.436005 314.003998 91.26001 322.522003 94.787994 C 321.734009 96.690002 320.945007 98.593994 320.157013 100.497009 Z"/>
    <g id="g11">
        <path id="path38" fill="#ffe15a" stroke="none" d="M 317.951996 81.958008 C 317.07901 84.36499 314.13501 85.51001 311.352997 84.60498 C 308.571991 83.699005 306.869995 81.054993 307.574005 78.593018 C 308.278015 76.130981 311.26001 74.828003 314.209991 75.786987 C 317.162994 76.744019 318.825989 79.550995 317.951996 81.958008 Z"/>
        <path id="path39" fill="#ffe15a" stroke="none" d="M 204.423996 78.593994 C 205.126999 81.057983 203.423996 83.703003 200.645004 84.606018 C 197.863998 85.505981 194.919998 84.360992 194.046005 81.958984 C 193.171997 79.550995 194.835999 76.744995 197.787994 75.787994 C 200.738007 74.832001 203.722 76.134003 204.423996 78.593994 Z"/>
        <path id="path40" fill="#ffe15a" stroke="none" d="M 254.589005 74.548004 C 254.595001 76.595001 252.755005 78.261993 250.475006 78.332001 C 248.195999 78.404999 246.253006 76.851013 246.132996 74.812012 C 246.014008 72.772003 247.852005 71.005981 250.244003 70.929016 C 252.636993 70.854004 254.580002 72.501007 254.589005 74.548004 Z"/>
        <path id="path41" fill="#ffe15a" stroke="none" d="M 265.86499 74.811005 C 265.743988 76.85498 263.799988 78.403992 261.52301 78.330994 C 259.243988 78.260986 257.403992 76.593994 257.408997 74.546997 C 257.417999 72.502014 259.362 70.850006 261.752991 70.927979 C 264.145996 71.001007 265.981995 72.77002 265.86499 74.811005 Z"/>
        <path id="path42" fill="#ffe15a" stroke="none" d="M 260.006989 84.078979 C 259.950012 86.126007 258.157013 87.735992 255.998993 87.735992 C 253.843002 87.734985 252.050003 86.127014 251.990997 84.078979 C 251.934998 82.037994 253.727997 80.324005 255.998993 80.328979 C 258.269989 80.324005 260.062988 82.036011 260.006989 84.078979 Z"/>
    </g>
    <g id="g12"/>
    <g id="g13"/>
    <g id="g14"/>
    <g id="g15"/>
    <g id="g16"/>
    <g id="g17"/>
    <g id="g18"/>
    <g id="g19"/>
    <g id="g20"/>
    <g id="g21"/>
    <g id="g22"/>
    <g id="g23"/>
    <g id="g24"/>
    <g id="g25"/>
    <g id="g26"/>
</svg>
