<?xml version="1.0" encoding="UTF-8"?>
<!-- Generated by Pixelmator Pro 3.3.2 -->
<svg width="512" height="335" viewBox="0 0 512 335" xmlns="http://www.w3.org/2000/svg" xmlns:xlink="http://www.w3.org/1999/xlink">
    <path id="Path" fill="#ff4b55" stroke="none" d="M 473.654999 0.274994 L 38.345001 0.274994 C 17.167 0.274994 0 17.442017 0 38.619995 L 0 297.380005 C 0 318.557007 17.167 335.725006 38.345001 335.725006 L 473.654999 335.725006 C 494.832001 335.725006 512 318.558014 512 297.380005 L 512 38.619995 C 512 17.442017 494.833008 0.274994 473.654999 0.274994 Z"/>
    <g id="Group">
        <path id="path1" fill="#f5f5f5" stroke="none" d="M 253.473999 137.751007 L 267.311005 155.85199 L 288.916992 148.619995 C 290.125 148.214996 291.153015 149.582001 290.429993 150.630005 L 277.490997 169.382996 L 291.04599 187.696991 C 291.803986 188.721008 290.821991 190.119995 289.60199 189.756012 L 267.768005 183.244995 L 254.539993 201.795013 C 253.800995 202.832001 252.164993 202.330994 252.134003 201.058014 L 251.578995 178.281006 L 229.848999 171.432007 C 228.634003 171.049011 228.604996 169.339996 229.807007 168.916992 L 251.298004 161.351013 L 251.095993 138.567993 C 251.082993 137.294006 252.701004 136.73999 253.473999 137.751007 Z"/>
        <path id="path2" fill="#f5f5f5" stroke="none" d="M 176.955994 238.661011 C 137.960999 238.661011 106.329002 207.028015 106.329002 167.997986 C 106.329002 129.039978 137.962006 97.335999 176.955994 97.335999 C 191.464005 97.335999 204.843002 101.798004 215.994003 109.350006 C 217.701004 110.505981 219.649994 108.263 218.220993 106.776978 C 201.557999 89.451996 177.973007 78.882996 151.822998 79.774994 C 106.897003 81.307983 69.705002 117.328003 66.834 162.187988 C 63.546001 213.571991 104.232002 256.274994 154.888 256.274994 C 179.841003 256.274994 202.266998 245.842987 218.281006 229.164001 C 219.695999 227.690002 217.742996 225.480988 216.052002 226.627014 C 204.889999 234.195007 191.488998 238.661011 176.955994 238.661011 Z"/>
    </g>
    <g id="g1"/>
    <g id="g2"/>
    <g id="g3"/>
    <g id="g4"/>
    <g id="g5"/>
    <g id="g6"/>
    <g id="g7"/>
    <g id="g8"/>
    <g id="g9"/>
    <g id="g10"/>
    <g id="g11"/>
    <g id="g12"/>
    <g id="g13"/>
    <g id="g14"/>
    <g id="g15"/>
</svg>
