<svg width="470" height="470" viewBox="0 0 470 470" fill="none"
    xmlns="http://www.w3.org/2000/svg">
    <path d="M235 5C107.966 5 5 108.562 5 235C5 361.438 107.966 465 235 465C362.034 465 465 361.438 465 235C465 108.562 362.034 5 235 5Z" fill="black" stroke="#F0F2FF" stroke-width="10"/>
    <rect x="48.2085" y="44.8604" width="372.529" height="381.329" fill="black" stroke="#F0F2FF" stroke-width="10"/>
    <path d="M10 235C10 111.315 110.736 10 235 10C359.264 10 460 111.315 460 235C460 358.685 359.264 460 235 460C110.736 460 10 358.685 10 235Z" fill="black"/>
    <path d="M120.828 263.598H102.685V73.9858H74.2856V264.774C74.2856 271.434 76.2578 278.094 80.5965 283.186C84.9352 288.279 91.2461 291.413 97.557 291.805V396.014H125.956V291.805C132.267 291.413 138.578 288.279 142.916 283.186C147.255 278.094 149.227 271.434 149.227 264.774V73.9858H120.828V263.598Z" fill="white"/>
    <path d="M218.79 367.807H200.252V73.9858H171.853V367.415C171.853 374.859 174.22 381.519 178.558 386.612C183.686 392.488 190.786 396.014 198.28 396.014H221.157C228.651 396.014 235.356 392.488 240.484 386.612C244.823 381.519 247.189 374.859 247.189 367.415V73.9858H218.79V367.807Z" fill="white"/>
    <path d="M269.748 396.014H298.147V254.196H316.291C316.685 254.196 316.685 254.588 316.685 254.98V396.014H345.084V256.155C345.084 248.711 338.379 240.093 331.279 240.093C338.379 240.093 345.084 231.082 345.084 223.639V102.976C345.084 95.9245 342.323 88.8728 337.984 83.3881C332.857 77.5117 325.757 73.9858 318.263 73.9858H269.748V396.014ZM298.147 225.989V102.193H316.291C316.685 102.193 316.685 102.584 316.685 102.976V224.814C316.685 225.206 316.685 225.598 316.291 225.989H298.147Z" fill="white"/>
    <path d="M367.315 396.014H395.714V73.9858H367.315V396.014Z" fill="white"/>
</svg>
